<svg width="24" height="24" viewBox="0 0 24 24" fill="none" xmlns="http://www.w3.org/2000/svg">
<path d="M8.75 13C8.75 12.8011 8.67098 12.6103 8.53033 12.4697C8.38968 12.329 8.19891 12.25 8 12.25C7.80109 12.25 7.61032 12.329 7.46967 12.4697C7.32902 12.6103 7.25 12.8011 7.25 13V17C7.25 17.1989 7.32902 17.3897 7.46967 17.5303C7.61032 17.671 7.80109 17.75 8 17.75C8.19891 17.75 8.38968 17.671 8.53033 17.5303C8.67098 17.3897 8.75 17.1989 8.75 17V13ZM16 12.25C16.1989 12.25 16.3897 12.329 16.5303 12.4697C16.671 12.6103 16.75 12.8011 16.75 13V17C16.75 17.1989 16.671 17.3897 16.5303 17.5303C16.3897 17.671 16.1989 17.75 16 17.75C15.8011 17.75 15.6103 17.671 15.4697 17.5303C15.329 17.3897 15.25 17.1989 15.25 17V13C15.25 12.8011 15.329 12.6103 15.4697 12.4697C15.6103 12.329 15.8011 12.25 16 12.25ZM12.75 13C12.75 12.8011 12.671 12.6103 12.5303 12.4697C12.3897 12.329 12.1989 12.25 12 12.25C11.8011 12.25 11.6103 12.329 11.4697 12.4697C11.329 12.6103 11.25 12.8011 11.25 13V17C11.25 17.1989 11.329 17.3897 11.4697 17.5303C11.6103 17.671 11.8011 17.75 12 17.75C12.1989 17.75 12.3897 17.671 12.5303 17.5303C12.671 17.3897 12.75 17.1989 12.75 17V13Z" fill="#262F3A"/>
<path fill-rule="evenodd" clip-rule="evenodd" d="M17.2736 3.473C16.7976 3.287 16.2646 3.256 15.5816 3.251C15.4398 2.95147 15.2158 2.69838 14.9357 2.52117C14.6557 2.34396 14.3311 2.24993 13.9996 2.25H9.99963C9.66832 2.24984 9.34377 2.34373 9.06372 2.52075C8.78367 2.69777 8.55962 2.95066 8.41763 3.25C7.73363 3.256 7.20163 3.287 6.72563 3.473C6.15741 3.69527 5.66323 4.07301 5.29963 4.563C4.93263 5.056 4.75963 5.69 4.52363 6.561L3.89563 8.864C3.50187 9.0619 3.15691 9.34469 2.88563 9.692C2.26363 10.489 2.15364 11.438 2.26464 12.526C2.37164 13.582 2.70463 14.912 3.12063 16.576L3.14663 16.683C3.41063 17.735 3.62363 18.59 3.87763 19.257C4.14263 19.953 4.47963 20.523 5.03363 20.956C5.58863 21.389 6.22363 21.576 6.96263 21.666C7.67063 21.75 8.55263 21.75 9.63763 21.75H14.3616C15.4466 21.75 16.3276 21.75 17.0366 21.665C17.7766 21.577 18.4106 21.389 18.9646 20.955C19.5196 20.523 19.8556 19.953 20.1206 19.257C20.3756 18.59 20.5886 17.735 20.8516 16.682L20.8786 16.577C21.2946 14.912 21.6266 13.582 21.7346 12.527C21.8446 11.437 21.7346 10.489 21.1126 9.692C20.8416 9.34481 20.497 9.06202 20.1036 8.864L19.4756 6.561C19.2386 5.69 19.0656 5.056 18.6996 4.562C18.3359 4.07238 17.8417 3.695 17.2736 3.473ZM7.27163 4.87C7.49163 4.784 7.75763 4.759 8.41863 4.752C8.70063 5.342 9.30263 5.75 9.99863 5.75H13.9986C14.6966 5.75 15.2986 5.342 15.5806 4.752C16.2416 4.759 16.5076 4.784 16.7276 4.87C17.0336 4.99 17.2996 5.193 17.4956 5.457C17.6716 5.694 17.7746 6.025 18.0656 7.092L18.4196 8.389C17.3816 8.25 16.0416 8.25 14.3766 8.25H9.62163C7.95763 8.25 6.61763 8.25 5.57963 8.389L5.93363 7.092C6.22363 6.025 6.32763 5.694 6.50363 5.457C6.69945 5.19311 6.9656 4.98968 7.27163 4.87ZM9.99963 3.75C9.93333 3.75 9.86974 3.77634 9.82286 3.82322C9.77597 3.87011 9.74963 3.9337 9.74963 4C9.74963 4.0663 9.77597 4.12989 9.82286 4.17678C9.86974 4.22366 9.93333 4.25 9.99963 4.25H13.9996C14.0659 4.25 14.1295 4.22366 14.1764 4.17678C14.2233 4.12989 14.2496 4.0663 14.2496 4C14.2496 3.9337 14.2233 3.87011 14.1764 3.82322C14.1295 3.77634 14.0659 3.75 13.9996 3.75H9.99963ZM4.06863 10.615C4.34763 10.258 4.78863 10.018 5.69863 9.886C6.62963 9.752 7.89163 9.75 9.68463 9.75H14.3146C16.1076 9.75 17.3686 9.752 18.2996 9.886C19.2106 10.018 19.6516 10.258 19.9306 10.616C20.2096 10.973 20.3356 11.458 20.2416 12.374C20.1466 13.31 19.8426 14.534 19.4076 16.274C19.1306 17.382 18.9376 18.15 18.7196 18.724C18.5076 19.278 18.3006 19.571 18.0416 19.774C17.7826 19.976 17.4476 20.105 16.8586 20.176C16.2486 20.249 15.4586 20.25 14.3146 20.25H9.68463C8.54063 20.25 7.74963 20.249 7.14063 20.176C6.55063 20.106 6.21663 19.976 5.95763 19.774C5.69763 19.571 5.49063 19.278 5.27963 18.724C5.06163 18.15 4.86863 17.382 4.59063 16.274C4.15663 14.534 3.85163 13.31 3.75663 12.374C3.66363 11.458 3.78963 10.972 4.06863 10.615Z" fill="#262F3A"/>
</svg>
